:FULLY-SPECIFIED
:FORCE-ALL-JOINTS-BE-3DOF
:DEGREES
2548
root 4.05349 13.7339 -23.8981 -30.3005 85.4723 -33.0535
lfemur -38.4225 11.9311 -12.4834
ltibia 89.6948 -0 0
lfoot -27.8788 26.2143 -0.0146071
ltoes -38.9753 0 0
rfemur -57.2295 -24.0956 10.241
rtibia 64.9344 -0 0
rfoot 0.901493 6.26604 0.300353
rtoes 8.26962 -0 0
lowerback 16.8528 -0.317174 -3.5464
upperback -1.04517 -0.775694 3.05114
thorax -10.5686 -0.0452309 5.56717
lowerneck 5.20475 -14.7096 -15.235
upperneck 0.0496959 -20.6087 15.1268
head 2.32612 -10.4552 6.25968
lclavicle 5.1684e-15 3.18055e-15 0
lhumerus -52.1698 -46.0105 115.103
lradius 106.726 -0 0
lwrist 81.435 0 0
lhand 8.86785 40.3962 -0.0208518
lfingers 7.12502 -0 0
lthumb 34.0522 67.1779 -0.0194782
rclavicle 5.1684e-15 3.18055e-15 0
rhumerus 10.6825 -11.9828 -60.0011
rradius 76.844 -0 0
rwrist 26.815 0 0
rhand -37.5426 -48.0972 0.183972
rfingers 7.12502 -0 0
rthumb -10.5963 -77.7488 0.174488
2549
root 4.01128 13.7477 -24.0363 -22.0199 84.075 -24.9321
lfemur -38.6199 11.9847 -12.7581
ltibia 89.5543 -0 0
lfoot -27.9634 26.3955 -0.0147372
ltoes -38.8983 0 0
rfemur -57.3525 -23.8545 10.5484
rtibia 65.7447 -0 0
rfoot 0.652163 5.57996 0.36907
rtoes 8.3209 -0 0
lowerback 16.9177 -0.270567 -3.60036
upperback -1.02818 -0.729934 3.02195
thorax -10.5937 -0.0212878 5.55434
lowerneck 5.23108 -14.7536 -15.2734
upperneck 0.0236431 -20.6789 15.275
head 2.33964 -10.4925 6.30399
lclavicle 5.1684e-15 3.18055e-15 0
lhumerus -51.6635 -46.4185 115.1
lradius 106.367 -0 0
lwrist 81.2449 0 0
lhand 8.79695 40.5065 -0.0247215
lfingers 7.12502 -0 0
lthumb 33.9853 67.3097 -0.0221569
rclavicle 5.1684e-15 3.18055e-15 0
rhumerus 11.7256 -10.7122 -59.5843
rradius 77.2142 -0 0
rwrist 26.3222 0 0
rhand -37.1385 -47.7957 0.225373
rfingers 7.12502 -0 0
rthumb -10.2061 -77.4529 0.213753
2550
root 3.96908 13.7614 -24.1744 -16.7211 82.5303 -19.7999
lfemur -38.828 12.0564 -13.0521
ltibia 89.3977 -0 0
lfoot -28.0667 26.5856 -0.0138551
ltoes -38.8174 0 0
rfemur -57.4817 -23.608 10.8738
rtibia 66.6134 -0 0
rfoot 0.381596 4.85303 0.438475
rtoes 8.3791 -0 0
lowerback 16.9862 -0.221153 -3.66238
upperback -1.01103 -0.682509 2.9912
thorax -10.6207 0.00389562 5.54403
lowerneck 5.26034 -14.8034 -15.3172
upperneck -0.00228889 -20.758 15.4333
head 2.35506 -10.5344 6.35123
lclavicle 5.1684e-15 3.18055e-15 0
lhumerus -51.1334 -46.8397 115.095
lradius 105.983 -0 0
lwrist 81.0519 0 0
lhand 8.72729 40.6268 -0.0284925
lfingers 7.12502 -0 0
lthumb 33.9197 67.4523 -0.0245071
rclavicle 5.1684e-15 3.18055e-15 0
rhumerus 12.8443 -9.37558 -59.1231
rradius 77.6174 -0 0
rwrist 25.8161 0 0
rhand -36.7099 -47.4775 0.26701
rfingers 7.12502 -0 0
rthumb -9.79235 -77.1406 0.253242
2551
root 3.92687 13.7752 -24.3126 -13.0915 80.8743 -16.3436
lfemur -39.0461 12.1451 -13.364
ltibia 89.2261 -0 0
lfoot -28.187 26.7833 -0.0119309
ltoes -38.7327 0 0
rfemur -57.6161 -23.3568 11.2155
rtibia 67.536 -0 0
rfoot 0.0909326 4.0882 0.507632
rtoes 8.44347 -0 0
lowerback 17.0579 -0.169131 -3.73189
upperback -0.993753 -0.633569 2.95903
thorax -10.6496 0.0302176 5.53611
lowerneck 5.29211 -14.8584 -15.3659
upperneck -0.0280296 -20.8452 15.6007
head 2.37223 -10.5805 6.40108
lclavicle 5.1684e-15 3.18055e-15 0
lhumerus -50.5794 -47.2739 115.088
lradius 105.576 -0 0
lwrist 80.8556 0 0
lhand 8.65823 40.7565 -0.032166
lfingers 7.12502 -0 0
lthumb 33.8547 67.6052 -0.0265615
rclavicle 5.1684e-15 3.18055e-15 0
rhumerus 14.0346 -7.9802 -58.6153
rradius 78.0513 -0 0
rwrist 25.298 0 0
rhand -36.2588 -47.1435 0.308341
rfingers 7.12502 -0 0
rthumb -9.35675 -76.8128 0.292441
2552
root 3.88466 13.7889 -24.4508 -10.4632 79.1264 -13.8953
lfemur -39.2732 12.2496 -13.6922
ltibia 89.041 -0 0
lfoot -28.3228 26.9878 -0.00894259
ltoes -38.644 0 0
rfemur -57.7545 -23.1014 11.5724
rtibia 68.5079 -0 0
rfoot -0.218665 3.28843 0.575624
rtoes 8.51327 -0 0
lowerback 17.1325 -0.114704 -3.80833
upperback -0.976386 -0.583267 2.92556
thorax -10.6802 0.0575763 5.53044
lowerneck 5.32597 -14.9178 -15.4187
upperneck -0.0535021 -20.9391 15.7761
head 2.39099 -10.6302 6.45321
lclavicle 5.1684e-15 3.18055e-15 0
lhumerus -50.0015 -47.7204 115.077
lradius 105.149 -0 0
lwrist 80.6558 0 0
lhand 8.58911 40.8948 -0.0357421
lfingers 7.12502 -0 0
lthumb 33.7897 67.7675 -0.0283516
rclavicle 5.1684e-15 3.18055e-15 0
rhumerus 15.2928 -6.53328 -58.0588
rradius 78.5136 -0 0
rwrist 24.7693 0 0
rhand -35.7867 -46.7948 0.348844
rfingers 7.12502 -0 0
rthumb -8.90101 -76.4705 0.330854
2553
root 3.84246 13.8027 -24.589 -8.47436 77.2986 -12.0924
lfemur -39.5086 12.3686 -14.0353
ltibia 88.8433 -0 0
lfoot -28.4724 27.1979 -0.0048784
ltoes -38.5515 0 0
rfemur -57.8959 -22.8425 11.9431
rtibia 69.5245 -0 0
rfoot -0.546008 2.45671 0.641567
rtoes 8.58776 -0 0
lowerback 17.2097 -0.0580728 -3.89112
upperback -0.958964 -0.531753 2.89094
thorax -10.7124 0.0858702 5.52689
lowerneck 5.36151 -14.9808 -15.4751
upperneck -0.0786218 -21.0388 15.9586
head 2.41121 -10.6829 6.50732
lclavicle 5.1684e-15 3.18055e-15 0
lhumerus -49.3997 -48.179 115.062
lradius 104.703 -0 0
lwrist 80.4522 0 0
lhand 8.51927 41.0413 -0.0392196
lfingers 7.12502 -0 0
lthumb 33.7241 67.9386 -0.029907
rclavicle 5.1684e-15 3.18055e-15 0
rhumerus 16.6153 -5.04214 -57.4519
rradius 79.002 -0 0
rwrist 24.2313 0 0
rhand -35.2956 -46.4324 0.388016
rfingers 7.12502 -0 0
rthumb -8.42684 -76.1147 0.368005
2554
root 3.80025 13.8165 -24.7272 -6.91517 75.3991 -10.7251
lfemur -39.7515 12.501 -14.3918
ltibia 88.6345 -0 0
lfoot -28.6343 27.4128 0.000260965
ltoes -38.4552 0 0
rfemur -58.0393 -22.5807 12.3263
rtibia 70.5813 -0 0
rfoot -0.889883 1.59603 0.704613
rtoes 8.6662 -0 0
lowerback 17.2891 0.000558508 -3.97971
upperback -0.941523 -0.479179 2.85531
thorax -10.7459 0.114998 5.52533
lowerneck 5.39831 -15.0468 -15.5344
upperneck -0.103294 -21.1431 16.1471
head 2.43273 -10.738 6.56308
lclavicle 5.1684e-15 3.18055e-15 0
lhumerus -48.7738 -48.6492 115.039
lradius 104.241 -0 0
lwrist 80.2446 0 0
lhand 8.44807 41.195 -0.0425954
lfingers 7.12502 -0 0
lthumb 33.6572 68.1178 -0.0312549
rclavicle 5.1684e-15 3.18055e-15 0
rhumerus 17.9989 -3.51415 -56.793
rradius 79.5139 -0 0
rwrist 23.6854 0 0
rhand -34.7872 -46.0573 0.42538
rfingers 7.12502 -0 0
rthumb -7.93597 -75.7464 0.403442
